<?xml version="1.0" encoding="utf-8"?>
<!-- Generator: Adobe Illustrator 26.0.1, SVG Export Plug-In . SVG Version: 6.00 Build 0)  -->
<svg version="1.1" id="Layer_1" xmlns="http://www.w3.org/2000/svg" xmlns:xlink="http://www.w3.org/1999/xlink" x="0px" y="0px"
	 width="800px" height="800px" viewBox="0 0 800 800" style="enable-background:new 0 0 800 800;" xml:space="preserve">
<style type="text/css">
	.st0{fill:#F2F2F2;}
	.st1{fill:#E6E6E6;}
	.st2{fill:#FFFFFF;}
	.st3{fill:#CCCCCC;}
	.st4{fill:#008080;}
	.st5{fill:#3F3D56;}
	.st6{fill-rule:evenodd;clip-rule:evenodd;fill:#E6E6E6;}
	.st7{fill:#FFEECC;fill-opacity:0.7;}
	.st8{fill:#FFEECC;fill-opacity:0.3;}
	.st9{fill:#CFAE81;}
	.st10{fill:#AA8B7E;}
	.st11{fill:#E0CEA8;}
	.st12{fill:#333358;}
	.st13{fill:#CEAC99;}
	.st14{fill:#4B4C74;}
	.st15{fill:#2A2B2A;}
	.st16{fill:#665A4B;}
	.st17{fill:#988A74;}
	.st18{fill:#679A43;}
	.st19{fill:#38833F;}
</style>
<g id="SVGRepo_bgCarrier">
</g>
<path id="fa3b9e12-7275-481e-bee9-64fd9595a50d" class="st0" d="M145.8,591.38l-5-19.7c-8.9-3.8-18.1-7-27.4-9.7l-0.6,9.2l-2.6-10.1
	c-11.5-3.3-19.4-4.7-19.4-4.7s10.6,39.9,32.9,70.5l25.9,4.5l-20.1,2.9c2.8,3.3,5.8,6.5,9,9.5c32.4,29.7,68.4,43.4,80.5,30.5
	s-4.3-47.5-36.7-77.2c-10-9.2-22.6-16.6-35.3-22.5L145.8,591.38z"/>
<path id="bde08021-c30f-4979-a9d8-cb90b72b5ca2" class="st0" d="M193.8,569.98l6-19.4c-5.7-7.8-11.8-15.2-18.4-22.4l-5.3,7.5l3.1-10
	c-8.2-8.7-14.1-14-14.1-14s-11.9,39.8-8.8,77.3l19.8,17.1l-18.7-7.8c0.7,4.3,1.6,8.5,2.8,12.7c12.2,42,35.9,72.2,53,67.3
	s21.1-42.9,8.9-84.9c-3.8-13-10.7-25.8-18.5-37.3L193.8,569.98z"/>
<path id="b3ac2088-de9b-4f7f-bc99-0ed9705c1a9d" class="st1" d="M490.2,247.08h-3.1v-85.3c0-27.3-22.3-49.4-49.9-49.4H254.7
	c-27.5,0-49.9,22.1-49.9,49.4v468c0,27.3,22.3,49.4,49.9,49.4h182.5c27.5,0,49.9-22.1,49.9-49.4v-322h3.1V247.08z"/>
<path id="b2715b96-3117-487c-acc0-20904544b5b7" class="st2" d="M439.2,125.28h-23.8c3.7,9-0.7,19.2-9.7,22.8
	c-2.1,0.9-4.4,1.3-6.7,1.3H294.4c-9.8,0-17.7-7.8-17.7-17.5c0-2.3,0.4-4.5,1.3-6.6h-22.3c-20.6,0-37.2,16.5-37.2,36.9l0,0v467.3
	c0,20.4,16.7,36.9,37.2,36.9h183.5c20.6,0,37.2-16.5,37.2-36.9l0,0v-467.3C476.5,141.78,459.8,125.28,439.2,125.28z"/>
<path id="bbe451c3-febc-41ba-8083-4c8307a2e73e" class="st3" d="M402.3,369.58H292.7c-2.2,0-3.9-1.7-3.9-3.9v-108.4
	c0-2.1,1.8-3.9,3.9-3.9h109.5c2.2,0,3.9,1.7,3.9,3.9v108.4C406.2,367.78,404.4,369.58,402.3,369.58z M292.7,254.88
	c-1.3,0-2.4,1-2.4,2.3v108.4c0,1.3,1.1,2.3,2.4,2.3h109.5c1.3,0,2.4-1,2.4-2.3v-108.4c0-1.3-1.1-2.3-2.4-2.3H292.7z"/>
<rect id="bb28937d-932f-4fdf-befe-f406e51091fe" x="258.7" y="452.68" class="st3" width="168" height="1.6"/>
<ellipse id="fcef55fc-4968-45b2-93bb-1a1080c85fc7" class="st4" cx="264" cy="437.68" rx="5.3" ry="5.3"/>
<rect id="ff33d889-4c74-4b91-85ef-b4882cc8fe76" x="258.7" y="505.18" class="st3" width="168" height="1.6"/>
<ellipse id="e8fa0310-b872-4adf-aedd-0c6eda09f3b8" class="st4" cx="264" cy="490.28" rx="5.3" ry="5.3"/>
<path class="st4" d="M417,557.38H268.4c-5.3,0-9.7-1.5-9.7-3.4v-18.4c0-1.9,4.3-3.4,9.7-3.4H417c5.3,0,9.7,1.5,9.7,3.4v18.4
	C426.7,555.88,422.4,557.38,417,557.38z"/>
<ellipse id="e12ee00d-aa4a-4413-a013-11d20b7f97f7" class="st4" cx="281.3" cy="437.68" rx="5.3" ry="5.3"/>
<ellipse id="f58f497e-6949-45c8-be5f-eee2aa0f6586" class="st4" cx="298.7" cy="437.68" rx="5.3" ry="5.3"/>
<ellipse id="b4d4939a-c6e6-4f4d-ba6c-e8b05485017d" class="st4" cx="281.3" cy="490.28" rx="5.3" ry="5.3"/>
<ellipse id="aff120b1-519b-4e96-ac87-836aa55663de" class="st4" cx="298.7" cy="490.28" rx="5.3" ry="5.3"/>
<path id="f1094013-1297-477a-ac57-08eac07c4bd5" class="st5" d="M661.1,680.98H109.3c-1.2,0-2.1-0.4-2.1-0.9s1-0.9,2.1-0.9h551.8
	c1.2,0,2.1,0.4,2.1,0.9S662.2,680.98,661.1,680.98z"/>
<path id="a6768b0e-63d0-4b31-8462-9b2e0b00f0fd" class="st2" d="M609.7,441.18c8.4,2.9,9.9,34.7,9.9,34.7
	c-9.9-5.4-21.7,3.4-21.7,3.4s-2.5-8.3-5.4-19c-1.8-6.1-0.3-12.8,3.9-17.6C596.3,442.68,601.3,438.28,609.7,441.18z"/>
<path class="st4" d="M366.5,320.58c0.9,0,1.6-0.3,2.2-0.7c0.4-0.4,0.7-1,0.7-1.6v-6.4c-9.5-6.9-17.1-19.4-17.1-31.2
	c0-11.2,9-20.3,20.1-20.3s20.1,9,20.1,20.1c0,11.8-7.4,23.9-16.6,30.9v6.7c0,2.5-1.2,4.8-2.9,6.4c-1.8,1.6-4.1,2.6-6.6,2.6h-13
	c-1.3,0-2.9,0.9-2.9,2.5c0,1.5,1.5,2.3,2.8,2.5l0,0h29.6c5.3,0,9.5,4.2,9.5,9.5s-4.2,9.5-9.5,9.5h-60.7c-1.5,0-9.9-6.1-15-15.2
	c-2.9-5.1-5.1-11.2-5.1-17.7c0-11.1,9-20.1,20.1-20.1s20.1,9,20.1,20.1c0,6.6-2.2,12.6-5.1,17.7c-1.9,3.4-4.2,6.3-6.6,8.6H383
	c1.6,0,2.9-1.3,2.9-2.9s-1.3-2.9-2.9-2.9c-9.8,0-20.1,0.3-29.9,0c-4.8-0.1-9-3.9-9-9s4.5-9,9.5-9h1.5h11.4V320.58z"/>
<path d="M366.5,319.08c0.6,0,1.5-0.3,1.5-1v-5.7c-4.8-3.6-9.2-8.8-12.3-14.3c-3.1-5.5-4.8-11.7-4.8-17.7c0-12,9.6-21.6,21.6-21.6
	s21.6,9.6,21.6,21.6c0,6-1.8,12-4.7,17.4c-3.1,5.5-7.2,10.5-12,14.3v6.1c0,5.8-5.1,10.4-10.8,10.4h-13c-0.6,0-1.5,0.3-1.5,1
	s0.9,1,1.5,1l0,0l0,0h29.6c6,0,10.8,5,10.8,10.8c0,6-4.8,10.8-10.8,10.8h-61c-1.2,0-5-2.3-8.9-6.3c-5.3-5.3-9.2-11.7-11.2-18.8
	c-4.2-14.9,3.4-30.8,20.3-30.8c16.5,0,24.5,15.6,20.3,30.8c-1.6,5.8-4.7,11.2-8.5,15.8h49.3c0.9,0,1.5-0.7,1.5-1.5
	c0-0.9-0.6-1.5-1.5-1.5c-9.9,0-20,0.3-29.9,0l0,0c-5.7-0.1-10.5-4.7-10.5-10.4c0-5.8,5.1-10.4,10.8-10.4h1.5H366.5L366.5,319.08
	L366.5,319.08z M366.5,321.88h-13c-4.2,0-8,3.2-8,7.6c0,4.2,3.6,7.4,7.7,7.6c9.9,0.3,19.9,0,29.8,0c2.3,0,4.2,1.9,4.2,4.2
	c0,2.3-1.9,4.2-4.2,4.2h-52.3h-3.4l2.3-2.3c4.5-4.8,8.2-10.7,9.9-17.1c3.8-13.3-2.9-27.1-17.5-27.1c-15,0-21.3,14-17.5,27.1
	c1.9,6.9,5.8,12.8,10.7,17.8c3.4,3.5,6.3,5.5,6.9,5.5h61c4.4,0,8-3.6,8-8s-3.6-8-8-8h-29.6l0,0l0,0c-2.2,0-4.2-1.6-4.2-3.8
	c0-2.3,2.2-3.8,4.2-3.8h13c4.1,0,8-3.2,8-7.6v-7.3c5.1-5.7,8-6.7,12.3-14.5c2.8-5,4.4-10.5,4.4-16.1c0-10.4-8.3-18.7-18.7-18.7
	s-18.7,8.5-18.7,18.7c0,5.5,1.8,11.2,4.5,16.3c3.1,5.7,7.3,10.4,12.6,14.3v7.2C370.9,320.48,368.7,321.88,366.5,321.88L366.5,321.88
	z"/>
<path class="st6" d="M331.5,317.98c0-5.1-4.2-9.3-9.3-9.3s-9.3,4.2-9.3,9.3s4.2,9.3,9.3,9.3C327.3,327.18,331.5,323.08,331.5,317.98
	L331.5,317.98z"/>
<path d="M330,317.98c0-2.2-0.9-4.2-2.3-5.5l0,0c-1.5-1.5-3.4-2.3-5.5-2.3c-2.2,0-4.1,0.9-5.5,2.3l0,0c-1.5,1.5-2.3,3.4-2.3,5.5
	s0.9,4.1,2.3,5.5c1.5,1.5,3.4,2.3,5.5,2.3c2.2,0,4.2-0.9,5.5-2.3C329.2,322.08,330,319.98,330,317.98L330,317.98z M329.8,310.38
	c1.9,1.9,3.2,4.7,3.2,7.6s-1.2,5.7-3.2,7.6c-1.9,1.9-4.7,3.2-7.6,3.2s-5.7-1.2-7.6-3.2c-1.9-1.9-3.2-4.7-3.2-7.6s1.2-5.7,3.2-7.6
	l0,0c1.9-1.9,4.7-3.2,7.6-3.2S327.9,308.28,329.8,310.38L329.8,310.38L329.8,310.38z"/>
<path class="st6" d="M366,286.98c1.8,1.8,4.1,2.8,6.6,2.8c5.1,0,9.3-4.2,9.3-9.3s-4.2-9.3-9.3-9.3s-9.3,4.2-9.3,9.3
	C363.2,282.98,364.2,285.28,366,286.98L366,286.98z"/>
<path d="M372.5,288.38c4.4,0,7.9-3.5,7.9-7.9s-3.5-7.9-7.9-7.9s-7.9,3.5-7.9,7.9C364.6,284.78,368.1,288.38,372.5,288.38
	L372.5,288.38z M361.7,280.48c0-5.8,4.8-10.8,10.8-10.8s10.8,4.8,10.8,10.8s-4.8,10.8-10.8,10.8
	C366.5,291.08,361.7,286.28,361.7,280.48L361.7,280.48z"/>
<g id="person-large-light-right" transform="matrix(1.27,0,0,1.27,18.3636,4.89676)">
	<g id="Layer-1">
		<path class="st7" d="M398.3,299.79l13.28,11.79l4.03-3.97v0l-15.97-13.7L398.3,299.79z"/>
		<path class="st8" d="M399.64,293.92l15.97,13.69l3.96-3.9v0l-18.89-14.9L399.64,293.92z"/>
		<path d="M395.95,304.15l14.28,11.25l2.38-3.14l-14.28-12.58L395.95,304.15z"/>
		<path class="st9" d="M452.78,516.14l-1.42-84.53l-0.79-54.29l21.97,5.15l-6.36,51.46l-1.32,81.11L452.78,516.14z"/>
		<path class="st10" d="M472.82,269.49l-3.49-12.28l-8.7,3.22l0.33,11.63L472.82,269.49z"/>
		<path class="st11" d="M441.81,362.33l-13.46,66.96l-0.5,90.93l12.8-2.37l3.31-86.9l28.56-48.33l2.46-25.44L441.81,362.33z"/>
		<path class="st12" d="M460.29,272.16l-13.84,18.22l-4.71,71.96l33.27-5.15l-2.19-87.75L460.29,272.16z"/>
		<path class="st13" d="M461.87,287.75l7.96,6.77l-19.75,40.92l-36.49-14.3l4.07-5.65l29.69,8.54L461.87,287.75z"/>
		<path class="st14" d="M460.27,279.39l-1.6,14.58l10.45,4.35l3.96-22.08"/>
		<path class="st14" d="M473.05,276.21l-0.26-6.75l-18.32,2.7l-8.02,18.23l14.46-6.09L473.05,276.21z"/>
		<path class="st13" d="M469.73,259.05l1.94-19.17l-24-2.02l-0.9,17.09l3.08-0.22l2.84,10.9l8.34-3.36"/>
		<path class="st13" d="M416.35,321.97l-9.85,2.66l-7.25-9.08l5.89-4.74l15.27,5.51L416.35,321.97z"/>
		<path class="st13" d="M412.03,308.82l-2.34,3.6l8.68,3.45L412.03,308.82z"/>
		<path class="st13" d="M462.85,253.27l3.03-0.12l0.29-9.39l-3.89,1.52L462.85,253.27z"/>
		<path class="st10" d="M460.72,263.2l0.36-9.7l4.37-0.47l0.58-9.22l-4.61,1.34l0.18-5.18l10.18,0.55l-1.89,18.69L460.72,263.2z"/>
		<path class="st15" d="M465.76,259.05l-3.69-2.11l-10.2,5.01l1.26,7.45L465.76,259.05z"/>
		<path class="st16" d="M464.98,514.91l-2.56,12.36l-26.17,0.94l-2.72-9.02l19.29-5.14L464.98,514.91z"/>
		<path class="st17" d="M409.31,521.57l2.72,9.02l26.17-0.93l2.56-12.36l-12.79-0.87L409.31,521.57z"/>
		<path class="st18" d="M453.52,238.34l-15.14,4.34l-4.09-5.95l14.8-4.89L453.52,238.34z"/>
		<path class="st18" d="M452.36,225.44l-6.07,7.54l2.66,6.28l22.84,1.26l-3.25-14.95L452.36,225.44z"/>
		<path class="st19" d="M461.6,239.97l10.18,0.55l-3.25-14.95L461.6,239.97z"/>
	</g>
</g>
</svg>
