<svg version="1.1" viewBox="0.0 0.0 960.0 540.0" fill="none" stroke="none" stroke-linecap="square" stroke-miterlimit="10" xmlns:xlink="http://www.w3.org/1999/xlink" xmlns="http://www.w3.org/2000/svg"><clipPath id="ge4b6bc674c_0_1825.0"><path d="m0 0l960.0 0l0 540.0l-960.0 0l0 -540.0z" clip-rule="nonzero"/></clipPath><g clip-path="url(#ge4b6bc674c_0_1825.0)"><path fill="#000000" fill-opacity="0.0" d="m0 0l960.0 0l0 540.0l-960.0 0z" fill-rule="evenodd"/><path fill="#000000" fill-opacity="0.0" d="m351.68765 231.26772l0 0c0 -9.123566 7.396118 -16.519684 16.519684 -16.519684l0 0c4.381317 0 8.58316 1.7404633 11.681183 4.838501c3.098053 3.0980377 4.838501 7.2998962 4.838501 11.681183l0 0c0 9.123566 -7.3960876 16.519684 -16.519684 16.519684l0 0c-9.123566 0 -16.519684 -7.396118 -16.519684 -16.519684z" fill-rule="evenodd"/><path fill="#000000" fill-opacity="0.0" d="m533.4488 168.35432l0 0c0 -9.123566 7.396118 -16.519684 16.519714 -16.519684l0 0c4.3812866 0 8.58313 1.7404633 11.681152 4.838516c3.0980835 3.0980377 4.838501 7.299881 4.838501 11.681168l0 0c0 9.123581 -7.396057 16.519684 -16.519653 16.519684l0 0c-9.123596 0 -16.519714 -7.396103 -16.519714 -16.519684z" fill-rule="evenodd"/><path fill="#000000" fill-opacity="0.0" d="m566.48816 231.26772l0 0c0 -9.123566 7.396118 -16.519684 16.519714 -16.519684l0 0c4.3812866 0 8.58313 1.7404633 11.681152 4.838501c3.0980835 3.0980377 4.838562 7.2998962 4.838562 11.681183l0 0c0 9.123566 -7.396118 16.519684 -16.519714 16.519684l0 0c-9.123596 0 -16.519714 -7.396118 -16.519714 -16.519684z" fill-rule="evenodd"/><path fill="#000000" fill-opacity="0.0" d="m366.6929 375.84253l0 0c0 -9.123566 7.396118 -16.519684 16.519684 -16.519684l0 0c4.381317 0 8.58316 1.740448 11.681183 4.838501c3.098053 3.0980225 4.838501 7.2998657 4.838501 11.681183l0 0c0 9.123566 -7.3960876 16.519684 -16.519684 16.519684l0 0c-9.123566 0 -16.519684 -7.396118 -16.519684 -16.519684z" fill-rule="evenodd"/><path fill="#000000" fill-opacity="0.0" d="m547.72705 426.99475l0 0c0 -9.123566 7.396118 -16.519684 16.519653 -16.519684l0 0c4.3812866 0 8.58313 1.740448 11.681213 4.838501c3.0980225 3.098053 4.838501 7.2998962 4.838501 11.681183l0 0c0 9.123566 -7.396118 16.519684 -16.519714 16.519684l0 0c-9.123535 0 -16.519653 -7.396118 -16.519653 -16.519684z" fill-rule="evenodd"/><path fill="#000000" fill-opacity="0.0" d="m612.96063 360.7126l0 0c0 -9.123566 7.396118 -16.519684 16.519653 -16.519684l0 0c4.3813477 0 8.583191 1.7404785 11.681213 4.838501c3.0980225 3.098053 4.838501 7.2998962 4.838501 11.681183l0 0c0 9.123596 -7.396118 16.519684 -16.519714 16.519684l0 0c-9.123535 0 -16.519653 -7.3960876 -16.519653 -16.519684z" fill-rule="evenodd"/><path fill="#e6e6e6" d="m553.5451 134.72289c-43.372955 0 -79.44672 57.44542 -125.82233 70.41786c-27.031097 7.589752 -55.612 3.763733 -83.69473 12.2183075c-8.205505 2.4699554 -16.355652 6.0538177 -24.443542 11.173599c-32.649048 20.85968 -51.28784 67.83029 -48.451202 102.64487c4.753113 58.324097 36.973206 98.99875 77.834656 126.02988c40.10733 26.574463 87.94278 39.415466 137.25189 39.415466c10.9383545 0 21.95282 -0.62960815 32.974182 -1.888794c43.88495 -4.99527 97.02698 -12.896332 130.54083 -59.002136c41.968445 -57.832855 35.983826 -141.95654 17.960754 -194.29602c-18.451965 -53.57791 -57.154846 -103.93866 -111.777466 -106.657684c-0.7956543 -0.041503906 -1.5843506 -0.055343628 -2.3730469 -0.055343628z" fill-rule="evenodd"/><path fill="#e6e6e6" d="m446.41693 140.82512c-9.478546 0 -18.652649 3.417801 -27.826752 5.431122c-0.49813843 0.12454224 -1.0516357 0.24906921 -1.5428467 0.31134033c-5.0021973 -0.24906921 -10.004364 -0.6780243 -15.06189 -0.9270935c-1.0239563 -0.048431396 -2.075592 -0.07611084 -3.1618042 -0.07611084c-14.847382 0 -34.80075 5.009094 -35.65866 22.665451c-0.8648071 16.791534 17.275848 28.518616 31.78421 31.666595c4.0820007 0.8786621 8.170929 1.2937927 12.239075 1.2937927c12.744141 0 25.246094 -4.068161 36.33667 -10.61319c12.0937805 -7.160797 33.638397 -21.911316 25.48825 -38.827377c-3.950531 -8.080978 -13.947968 -10.862259 -22.340271 -10.92453c-0.08300781 0 -0.17297363 0 -0.25598145 0z" fill-rule="evenodd"/><path fill="#e6e6e6" d="m332.03806 166.6939c-13.297607 0 -26.782043 9.789871 -25.287628 25.17691c1.0170593 10.502487 10.149658 18.84636 20.47226 18.84636c0.29058838 0 0.58807373 -0.0069122314 0.8786621 -0.020751953c1.2107544 0.17988586 2.4353638 0.26983643 3.6530457 0.26983643c5.950012 0 11.879303 -2.1171112 16.286469 -6.3167267c7.285309 -6.918625 9.381653 -18.825607 3.8259888 -27.529251c-4.6493225 -7.2161255 -12.211395 -10.426376 -19.828796 -10.426376z" fill-rule="evenodd"/><path fill="#d87ca6" d="m527.6486 322.41162l-5.7355347 6.662628c0.920166 0.5604248 12.09375 8.336975 12.09375 8.336975l5.064453 -7.7765503l-11.422668 -7.223053z" fill-rule="evenodd"/><path fill="#000000" d="m554.76965 320.32217c-0.8302002 0 -2.0548096 0.43588257 -3.7913818 1.9649048c-4.0128174 3.6391907 -5.119812 4.31723 -7.7142944 5.8047485c-2.5875854 1.4183044 -4.192688 1.5428467 -4.192688 1.5428467l-5.064453 7.7765503c0 0 3.701477 4.31723 6.6073 5.797821c8.45459 -5.368866 15.677612 -22.091217 15.677612 -22.091217c0 0 -0.40820312 -0.7956543 -1.5220947 -0.7956543z" fill-rule="evenodd"/><path fill="#d87ca6" d="m511.16843 388.69907l-8.7659 0.7402954c0.24905396 1.0516357 2.843567 14.446106 2.843567 14.446106l9.008057 -2.0410156l-3.0857239 -13.145386z" fill-rule="evenodd"/><path fill="#00cc74" d="m495.29016 298.74988c-11.007538 0 -31.770355 10.267273 -31.770355 10.267273c0 0 -31.78421 20.617523 -23.516449 41.22815c0 0 19.01239 6.233673 30.186005 9.194855c11.228943 2.9680786 18.265198 2.9680786 21.786774 9.630737c3.5769348 6.6695557 8.267761 25.675049 11.1736145 27.83368c1.3145142 0.9616699 3.4523926 1.7296448 5.5487366 1.7296448c2.6221619 0 5.195862 -1.1900024 6.053772 -4.6908264c1.5429077 -6.2337036 -3.708374 -36.848663 -8.212402 -43.940247c-4.566284 -7.036255 -42.2175 -19.386017 -42.2175 -19.386017l2.3454285 -3.1479797c0 0 20.569092 -3.6115417 27.799072 -3.6115417c0.67111206 0 1.2315063 0.027679443 1.646637 0.09686279c4.9329834 0.7402954 33.327057 13.332214 33.327057 13.332214c0 0 6.2959595 -4.6908264 6.109131 -11.422668c-0.80255127 -2.525299 -28.269531 -25.85495 -38.640564 -27.031097c-0.5119629 -0.055358887 -1.0516357 -0.08303833 -1.6189575 -0.08303833z" fill-rule="evenodd"/><path fill="#ffaa9b" d="m401.2175 218.17546c-0.27676392 0 -0.5604248 0.055343628 -0.8371582 0.17295837c-3.3348083 1.4183197 -0.18682861 9.997437 -0.18682861 9.997437c0 0 -21.413147 12.100693 -24.381256 30.365875c-2.8988953 18.272125 14.38385 34.627777 14.38385 34.627777l9.381653 -16.355652c0 0 -9.381653 -10.2464905 -6.4827576 -20.181671c2.9681091 -9.997421 11.422668 -21.84903 12.965515 -27.03801c1.4114075 -4.8084564 -1.7365723 -11.588715 -4.8430176 -11.588715z" fill-rule="evenodd"/><path fill="#ffaa9b" d="m453.69534 210.92473c-2.8297424 0 -6.6142273 5.292755 -5.666382 10.26033c1.176178 6.1783447 9.810638 12.349777 12.405121 21.357834c2.5322266 9.014984 -7.0985107 25.37062 -7.0985107 25.37062l12.965515 12.585022c0 0 9.810638 -16.597809 7.278412 -32.27545c-2.5875854 -15.677628 -20.430725 -27.280167 -20.430725 -27.280167c0 0 4.8776245 -5.493408 2.345398 -9.014984c-0.49121094 -0.691864 -1.1138916 -1.0032043 -1.7988281 -1.0032043z" fill-rule="evenodd"/><path fill="#00c0f3" d="m452.78207 266.24612c0 0 -9.803711 16.417938 -25.522858 16.417938c-0.7748718 0 -1.5705261 -0.041503906 -2.3730774 -0.12454224c0 0 -16.666992 0 -26.29773 -8.274689c-0.36669922 0.80255127 -13.145416 19.074677 -13.145416 19.074677l16.90915 9.381683c0 0 4.6908264 36.537292 39.629944 50.243103c0.5534973 -0.3735962 4.8776245 -20.064026 10.986786 -27.10028c5.0575256 -5.860077 16.293396 -15.490814 18.202942 -19.994843l0 0c-1.1623535 0.07608032 -2.3108215 0.110687256 -3.4316406 0.110687256c-10.744659 0 -19.095459 -3.4178162 -19.095459 -9.118774c0 0 19.37912 -8.641357 21.786804 -17.469543c0.7402954 -2.7190247 -17.649445 -13.145416 -17.649445 -13.145416z" fill-rule="evenodd"/><path fill="#000000" d="m514.25415 401.84445l-9.008057 2.0410156c0 0 -0.3736267 5.611023 0.67800903 8.696716c1.2937927 0.27676392 2.7052002 0.40127563 4.192688 0.40127563c9.7691345 0 22.47171 -5.209717 22.47171 -5.209717c0 0 0.8026123 -2.5944824 -4.62854 -2.843567c-5.4311523 -0.24215698 -6.7318115 -0.49121094 -9.568481 -1.2937927c-2.836609 -0.7402954 -4.137329 -1.7919312 -4.137329 -1.7919312z" fill-rule="evenodd"/><path fill="#000000" d="m439.11777 242.74353c-0.91326904 0 -1.9787292 0.27674866 -3.2448425 0.7264557c-0.94784546 0.3528595 -1.7988281 0.45663452 -2.6152344 0.45663452c-1.2315369 0 -2.373108 -0.24215698 -3.6322937 -0.24215698c-1.7158203 0 -3.6461182 0.44970703 -6.2821045 2.5598907c-5.929291 4.6908417 -10.246521 13.152344 -1.176178 18.458923c1.4321594 0.8302307 2.8366394 1.183075 4.1788635 1.183075c7.12619 0 12.674927 -9.824463 12.674927 -9.824463c0 0 6.6626587 -0.98934937 4.9329834 -7.285309c-1.2661133 -4.4486847 -2.6221619 -6.0330505 -4.8361206 -6.0330505z" fill-rule="evenodd"/><path fill="#db9c94" d="m426.67114 267.0487l0 0c0 0 0.5604248 11.789337 -4.31723 15.304016c1.874939 4.3241577 4.6078186 5.6248474 7.202301 5.6248474c3.8952026 0 7.485962 -2.9058228 7.485962 -2.9058228c0 0 -2.7120972 -4.877655 -1.7296448 -10.557831c-0.42895508 -0.42895508 -8.641388 -7.46521 -8.641388 -7.46521z" fill-rule="evenodd"/><path fill="#ffaa9b" d="m429.01657 251.122l0 0c0 0 0.0068969727 0 0.0068969727 0l0 0c0 0 -0.0068969727 0 -0.0068969727 0zm0.0068969727 0c0.7887268 0.6365204 -3.708374 10.246506 -6.1160583 10.433304c0 0 -0.26290894 -0.055358887 -0.6434326 -0.055358887c-0.90634155 0 -2.4422913 0.30444336 -2.4422913 2.4007874c0 2.0894165 1.5359497 2.3938293 2.4422913 2.3938293c0.38052368 0 0.6434326 -0.048431396 0.6434326 -0.048431396c0 0 6.233673 11.941589 13.615875 11.941589c0.6987915 0 1.40448 -0.10379028 2.1240234 -0.33901978c8.205505 -2.781311 0.7402954 -25.121567 0.7402954 -25.121567l0 0c0 0 -1.5151978 0.84407043 -3.7983398 0.84407043c-1.8265076 0 -4.137329 -0.5327301 -6.565796 -2.4492035z" fill-rule="evenodd"/><path fill="#000000" d="m569.0636 176.19318c-4.3449097 0 -8.309326 2.9542542 -9.319397 7.4098663l-24.934814 106.77528c-1.1692505 5.119812 1.9718628 10.246521 7.1608276 11.478027l46.84607 10.92453c0.71954346 0.16604614 1.4459839 0.24905396 2.1516724 0.24905396c4.3380127 0 8.267761 -2.9542542 9.326355 -7.409851l24.934753 -106.71303c1.1761475 -5.1820526 -2.0341187 -10.308762 -7.1538696 -11.540283l-46.853027 -10.92453c-0.71954346 -0.16604614 -1.4459839 -0.24906921 -2.1585693 -0.24906921z" fill-rule="evenodd"/><path fill="#00c0f3" d="m564.53876 189.09644c-1.2730103 0 -2.4353027 0.8648224 -2.753601 2.158615l-21.053406 89.99068c-0.30438232 1.4805908 0.62268066 2.9611816 2.1032715 3.3278809l52.768433 12.342834c0.20062256 0.041503906 0.40130615 0.06225586 0.59503174 0.06225586c1.3145142 0 2.4768677 -0.8648071 2.802002 -2.1585999l20.984253 -89.99069c0.3735962 -1.4805908 -0.55352783 -2.9611664 -2.0963745 -3.3278656l-52.77533 -12.349762c-0.19372559 -0.034591675 -0.3805542 -0.055343628 -0.5742798 -0.055343628z" fill-rule="evenodd"/><path fill="#253d82" d="m584.2569 184.86916c-0.53271484 0 -1.0101318 0.35284424 -1.1208496 0.89250183c-0.18676758 0.6157532 0.24908447 1.2315063 0.86486816 1.4183197c0.08300781 0.013839722 0.15911865 0.020751953 0.23522949 0.020751953c0.53271484 0 1.0170288 -0.345932 1.1207886 -0.8855896c0.18682861 -0.6780243 -0.24212646 -1.2937775 -0.8648071 -1.4183197c-0.07611084 -0.013839722 -0.15911865 -0.027664185 -0.23522949 -0.027664185z" fill-rule="evenodd"/><path fill="#253d82" d="m588.6848 185.90002c-0.5465698 0 -0.99627686 0.38745117 -1.1000366 0.90634155c-0.124572754 0.62268066 0.24212646 1.2384338 0.85791016 1.3629761l13.581238 3.2102356c0.08306885 0.013839722 0.15917969 0.020767212 0.23522949 0.020767212c0.5327759 0 1.0170898 -0.3528595 1.1208496 -0.8855896c0.18682861 -0.62268066 -0.24212646 -1.300705 -0.8648071 -1.4183197l-13.512146 -3.1479797c-0.11065674 -0.034591675 -0.21447754 -0.048431396 -0.3182373 -0.048431396z" fill-rule="evenodd"/><path fill="#818181" d="m567.20935 294.571c-2.2485352 0 -4.282593 1.5497742 -4.8084106 3.8329468c-0.6157837 2.6498413 0.9824219 5.3065796 3.6391602 5.922333c0.3805542 0.08996582 0.7680054 0.13146973 1.1416016 0.13146973c2.2347412 0 4.254944 -1.5013428 4.7807617 -3.7706604c0.6849365 -2.6567688 -0.9824219 -5.313507 -3.6391602 -5.9915466c-0.37365723 -0.08300781 -0.7472534 -0.12454224 -1.1139526 -0.12454224z" fill-rule="evenodd"/><path fill="#2e3f83" d="m556.24335 196.18112c-0.9755249 0 -1.84729 0.6849365 -2.0548096 1.6743011l-2.83667 12.225235c-0.31134033 1.1692505 0.42895508 2.3454132 1.6051025 2.5875702l3.8260498 -16.417923c-0.17993164 -0.048431396 -0.35980225 -0.06918335 -0.53967285 -0.06918335z" fill-rule="evenodd"/><path fill="#2e3f83" d="m621.09863 216.49423l-4.4486694 19.136948c0.15222168 0.034591675 0.31134033 0.048431396 0.46350098 0.048431396c0.95477295 0 1.868042 -0.6434326 2.1309814 -1.6535645l3.4592896 -14.937332c0.2421875 -1.1069794 -0.43585205 -2.283142 -1.6051025 -2.5944824z" fill-rule="evenodd"/><path fill="#00cc74" d="m601.5466 399.60974c-0.59503174 0 -1.1968994 0.062286377 -1.8057861 0.20065308l-68.01709 15.117218c-4.4417725 0.98934937 -7.2230225 5.431122 -6.2337036 9.817535l8.516846 38.453766c0.85791016 3.7914124 4.296509 6.427429 8.053284 6.427429c0.58117676 0 1.1692505 -0.062286377 1.7573242 -0.19372559l68.07941 -15.186401c4.4486694 -0.9893799 7.2230225 -5.368866 6.2337036 -9.810638l-8.579102 -38.39151c-0.8510132 -3.8398438 -4.234253 -6.434326 -8.004883 -6.434326z" fill-rule="evenodd"/><path fill="#000000" d="m614.18 426.8415l-84.0614 18.70108l2.0963135 9.381653l84.06836 -18.70105l-2.1032715 -9.381683z" fill-rule="evenodd"/><path fill="#e26562" d="m593.9153 446.12372c-1.0654297 0 -2.1240234 0.53274536 -2.753601 1.5221252l-0.3735962 0.6157532c-0.9824219 1.5428467 -0.5534668 3.5769348 0.9893799 4.5040283l0.61572266 0.42895508c0.5465698 0.35284424 1.1484985 0.5119629 1.7435303 0.5119629c1.0931396 0 2.1655273 -0.5603943 2.767456 -1.5566711c1.2315063 -1.8542175 0.67803955 -4.3241577 -1.2384644 -5.493408c-0.53271484 -0.35977173 -1.1415405 -0.53274536 -1.7504272 -0.53274536z" fill-rule="evenodd"/><path fill="#f3cd78" d="m600.066 444.93372c-1.2107544 0 -2.3869019 0.58810425 -3.0995483 1.660492c-1.0516357 1.7296448 -0.5604248 3.950531 1.1069946 5.0575256c0.61572266 0.3735962 1.3006592 0.5534668 1.9718018 0.5534668c1.2246094 0 2.4146118 -0.58807373 3.0926514 -1.6604614c1.1069336 -1.7296448 0.5534668 -3.950531 -1.1139526 -5.064453c-0.61572266 -0.3735962 -1.2868652 -0.5465698 -1.9579468 -0.5465698z" fill-rule="evenodd"/><path fill="#ffffff" d="m592.2133 409.8701l-59.258118 13.332214l1.5428467 6.171417l59.258118 -13.39447l-1.5428467 -6.1091614z" fill-rule="evenodd"/><path fill="#ffffff" d="m577.1514 422.462l-42.52881 9.506195l0.80255127 3.4523926l42.52887 -9.506195l-0.8026123 -3.4523926z" fill-rule="evenodd"/><path fill="#ffffff" d="m567.7075 430.17627l-31.417542 7.036255l0.7402954 3.514679l31.479797 -7.0985413l-0.80255127 -3.4523926z" fill-rule="evenodd"/><path fill="#eeb478" d="m475.57898 377.40784c-2.4007568 0 -4.677002 1.4736938 -5.576416 3.8813782l-2.5944824 6.5450134c-0.12454224 0.24908447 0.06225586 0.5534973 0.3113098 0.67803955c0.07611084 0.034576416 0.15914917 0.048431396 0.23526001 0.048431396c0.22137451 0 0.4151001 -0.12454224 0.5050354 -0.35287476l2.5322266 -6.5450134c0.7541504 -1.9372253 2.6360168 -3.1203003 4.614746 -3.1203003c0.6018982 0 1.2107544 0.110687256 1.7988281 0.34591675c2.5322266 0.9824524 3.7706604 3.8260193 2.781311 6.3513184l-2.5322266 6.5450134c-0.12454224 0.31134033 0 0.6157837 0.31134033 0.7402954c0.06918335 0.027679443 0.13143921 0.041534424 0.20062256 0.041534424c0.23522949 0 0.44281006 -0.15914917 0.53967285 -0.35287476l2.532196 -6.538086c1.2315369 -3.0857239 -0.3113098 -6.6073 -3.4592896 -7.8388367c-0.71954346 -0.29055786 -1.4667664 -0.42895508 -2.2001343 -0.42895508z" fill-rule="evenodd"/><path fill="#f6b26b" d="m462.10147 381.41373l-12.958588 27.591522l27.217896 10.61319l9.194855 -29.065186l-23.454163 -9.139526z" fill-rule="evenodd"/><path fill="#ff6d2f" d="m455.74326 378.88843l-12.958618 27.646881l27.217926 10.620087l9.194855 -29.072083l-23.454163 -9.194885z" fill-rule="evenodd"/><path fill="#f3cd78" d="m468.91632 374.7926c-2.4284363 0 -4.7461853 1.4598389 -5.7009583 3.8467712l-2.532196 6.5450134c-0.12454224 0.30441284 0.06225586 0.6157532 0.30441284 0.7402954c0.05532837 0.0069274902 0.110687256 0.0138549805 0.15911865 0.0138549805c0.25598145 0 0.48431396 -0.11764526 0.58117676 -0.3251953l2.5322266 -6.5450134c0.76104736 -1.9856567 2.6429138 -3.1756592 4.621643 -3.1756592c0.6018982 0 1.2107544 0.110687256 1.7988281 0.33901978c2.5322266 0.98934937 3.763733 3.8882751 2.7743835 6.420471l-2.525299 6.5381165c-0.12454224 0.24908447 0 0.62268066 0.30441284 0.67803955c0.08303833 0.034576416 0.15911865 0.048431396 0.23522949 0.048431396c0.22140503 0 0.41513062 -0.12454224 0.5050659 -0.35284424l2.5322266 -6.545044c1.2384338 -3.0857239 -0.30441284 -6.6003723 -3.4523926 -7.838806c-0.705719 -0.26290894 -1.4252625 -0.38745117 -2.1378784 -0.38745117z" fill-rule="evenodd"/><path fill="#ef2929" d="m339.4756 381.5452c-3.2102356 0 -6.468933 0.67111206 -9.582306 2.0894165c-11.664825 5.313507 -16.784607 19.01242 -11.478027 30.677246c3.8813477 8.496063 12.301331 13.519012 21.081085 13.519012c3.217163 0 6.4827576 -0.67803955 9.596161 -2.096344c11.602539 -5.3135376 16.72232 -19.074677 11.415741 -30.677246c-3.8882751 -8.496094 -12.266754 -13.512085 -21.032654 -13.512085z" fill-rule="evenodd"/><path fill="#ffffff" d="m345.99295 393.29303c-4.1235046 0 -7.7696533 4.2342224 -7.7696533 4.2342224l-0.05532837 0c0 0 -2.975006 -1.5082703 -6.116089 -1.5082703c-2.753601 0 -5.631775 1.162323 -6.7249146 5.521057c-2.4076843 9.381683 16.293396 12.958618 16.293396 12.958618c0 0 15.553101 -10.121979 9.879822 -17.960785c-1.7504272 -2.4076843 -3.6737976 -3.2448425 -5.5072327 -3.2448425z" fill-rule="evenodd"/><path fill="#ff6d2f" d="m555.5722 145.08699c-12.598816 0 -23.440308 9.478531 -24.713318 22.278015c-1.418335 13.643539 8.454529 25.861847 22.098083 27.280182c0.87176514 0.0899353 1.7365723 0.1383667 2.5944824 0.1383667c12.56427 0 23.35736 -9.526962 24.68573 -22.29184c1.418335 -13.643555 -8.516846 -25.861862 -22.1604 -27.280182c-0.8371582 -0.08302307 -1.6743164 -0.12454224 -2.5045776 -0.12454224z" fill-rule="evenodd"/><path fill="#ffffff" d="m561.08636 181.23686c-0.7817993 0 -1.4667358 0.6434326 -1.5289917 1.4390717c-0.117614746 0.86483765 0.4981079 1.605133 1.3629761 1.72966c0.041503906 0 0.08300781 0 0.12451172 0c0.86486816 0 1.5428467 -0.60191345 1.6604614 -1.4252319c0.062316895 -0.86483765 -0.5534668 -1.6673889 -1.4182739 -1.7227478c-0.06921387 -0.013824463 -0.1383667 -0.020751953 -0.2006836 -0.020751953z" fill-rule="evenodd"/><path fill="#ffffff" d="m548.9995 179.95692c-0.8648071 0 -1.5428467 0.5950012 -1.6604614 1.4183197c-0.06225586 0.8648224 0.55352783 1.6673889 1.418335 1.7919159c0.041503906 0 0.08300781 0.0069274902 0.117614746 0.0069274902c0.8233032 0 1.5497437 -0.6019287 1.6120605 -1.4252472c0.12451172 -0.9270935 -0.49127197 -1.6673889 -1.3560791 -1.7919159c-0.041503906 0 -0.08996582 0 -0.13146973 0z" fill-rule="evenodd"/><path fill="#ffffff" d="m545.6717 165.94669l5.8670044 0.6157532l-0.31134033 3.272522l-4.8776855 -0.4912262l-0.6779785 -3.397049zm8.330017 0.8648224l5.7424927 0.5534973l-0.30444336 3.3347778l-5.7424927 -0.6157532l0.30444336 -3.272522zm8.212402 0.86483765l4.628601 0.42895508l-0.9893799 3.2102356l-3.9505615 -0.36668396l0.31134033 -3.2725067zm-15.366272 4.1996l4.130432 0.42895508l-0.42895508 4.0750885l-2.83667 -0.24908447l-0.8648071 -4.254959zm6.600403 0.6780243l5.7424316 0.61576843l-0.43585205 4.0750732l-5.7355347 -0.62268066l0.42895508 -4.068161zm8.212402 0.86483765l3.3901367 0.30441284l-1.2938232 4.0128174l-2.5322266 -0.24906921l0.4359131 -4.068161zm-22.893799 -14.819717c-0.62957764 0 -1.1830444 0.47738647 -1.2384033 1.1139069c-0.124572754 0.6780243 0.36669922 1.2937775 1.0446777 1.3560486l3.6461182 0.37361145l3.265625 16.044312c0.06225586 0.56040955 0.5604248 0.9270935 1.0516357 0.9893646l17.158203 1.7919159c0.21447754 0.013839722 0.44281006 0.027679443 0.6572876 0.027679443c0.6503296 0 1.2384033 -0.103775024 1.376831 -0.5258179l3.9505005 -12.342834c0.124572754 -0.36669922 0.06225586 -0.7402954 -0.117614746 -1.0447235c-0.18676758 -0.31134033 -0.5604248 -0.49813843 -0.927063 -0.56040955l-23.454224 -2.4076843l-0.6779785 -3.3901367c-0.124572754 -0.49813843 -0.5604248 -0.9270935 -1.1139526 -0.9893646l-4.5040283 -0.42895508c-0.041503906 -0.0069122314 -0.076049805 -0.0069122314 -0.117614746 -0.0069122314z" fill-rule="evenodd"/><path fill="#fbbf10" d="m629.75385 329.36484c-1.5359497 0 -3.3347778 0.22833252 -5.3273315 0.8855896c-4.5040283 1.4805908 -9.070374 5.431122 -14.875061 12.405121c0 0 3.6461182 7.589752 6.420471 8.703644l5.064453 -3.9505615l0 0c0 0 -2.345459 12.038452 -8.1501465 32.586792c0 0 8.274658 4.5040283 17.898499 6.6695557c6.399719 1.4252319 12.66803 1.6673889 16.182678 1.6673889c1.8057861 0 2.8919678 -0.06225586 2.8919678 -0.06225586c3.5147095 -21.053406 6.482788 -32.96039 6.482788 -32.96039l2.8989258 5.735565c0.0345459 0.0068969727 0.06915283 0.0068969727 0.103759766 0.0068969727c3.0718994 0 9.402405 -5.126709 9.402405 -5.126709c-2.283142 -8.8281555 -4.753113 -14.321564 -8.212402 -17.594086c-4.268799 -4.1096497 -8.63446 -4.3864136 -9.734497 -4.3864136c-0.17297363 0 -0.26293945 0.0069274902 -0.26293945 0.0069274902c0 0.06225586 -0.06225586 0.06225586 -0.06225586 0.12454224c-0.24908447 1.2315063 -0.6157837 2.4699402 -1.1692505 3.5146484c-0.91326904 1.7711792 -2.4561157 3.064972 -5.3135376 3.064972c-0.8302002 0 -1.7711792 -0.11071777 -2.836609 -0.34594727c-4.753113 -1.0516357 -6.109192 -3.3970337 -6.2337036 -5.922333c-0.06225586 -1.176178 0.18682861 -2.4699707 0.42895508 -3.7084045c0 0 0.06225586 -0.06225586 0.06225586 -0.12454224c0 0 -2.1516724 -1.1900024 -5.659424 -1.1900024z" fill-rule="evenodd"/><path fill="#00c0f3" d="m646.12335 260.15775c-1.9856567 0 -4.0059204 0.2698059 -6.019226 0.8371582c-11.727112 3.2724915 -18.576538 15.435455 -15.24176 27.162537c2.7120972 9.713776 11.567932 16.085846 21.164124 16.085846c1.9786987 0 3.9920044 -0.26983643 5.991516 -0.8440857c11.727112 -3.272522 18.576538 -15.428558 15.304016 -27.15564c-2.760498 -9.720673 -11.581787 -16.085815 -21.19867 -16.085815z" fill-rule="evenodd"/><path fill="#ffffff" d="m636.2366 281.24573c-0.30438232 0 -0.6226196 0.034606934 -0.94781494 0.117614746c-1.5982056 0.49813843 -2.5875854 1.9787292 -2.2208862 3.3970642l2.5944824 9.257141c0.35284424 1.162323 1.5289917 1.9095459 2.822815 1.9095459c0.29058838 0 0.58807373 -0.041534424 0.8786621 -0.117614746c1.6051025 -0.49124146 2.6567383 -2.0340881 2.2208862 -3.3970642l-2.5875854 -9.319397c-0.35284424 -1.1484985 -1.4667358 -1.84729 -2.760559 -1.84729z" fill-rule="evenodd"/><path fill="#ffffff" d="m646.5246 268.40475c-1.2937622 0.06225586 -2.283142 1.1138916 -2.4076538 2.4076843c-0.30444336 3.0856934 -0.80255127 4.6285706 -2.345459 7.3406677c-0.36663818 0.6849365 -0.5534668 1.3006897 -0.6779785 2.040985c-0.124572754 0.8025818 0.24902344 1.7296753 0.49121094 2.594513l1.7919312 6.47583c0.6641846 2.2554626 2.774353 3.7844849 5.022888 3.7844849c0.463562 0 0.934021 -0.06225586 1.397583 -0.20062256l5.8601074 -1.9787292c2.7189941 -0.8025818 4.3864136 -3.701477 3.5838623 -6.4205017l-0.55352783 -6.47583c-0.67108154 -2.3246765 -2.80896 -3.8260193 -5.078247 -3.8260193c-0.44281006 0 -0.89941406 0.06225586 -1.3422241 0.1798706l-4.3241577 1.2384644c0.31134033 -1.2384644 0.5604248 -2.594513 0.7402954 -4.261902c0.18682861 -1.6051025 -0.920166 -2.8988953 -2.1586304 -2.8988953z" fill-rule="evenodd"/><path fill="#0a789b" d="m331.31158 289.08456l-17.836243 44.3761l29.812408 13.020874l17.836243 -44.37613l-29.812408 -13.0208435z" fill-rule="evenodd"/><path fill="#165c7f" d="m323.53503 285.62524l-20.984192 43.082336l29.812378 13.020874l20.984222 -43.02008l-29.812408 -13.08313z" fill-rule="evenodd"/><path fill="#ffffff" d="m338.84598 285.30698c-0.9824219 0 -1.9718018 0.1867981 -2.9058228 0.5673218c-1.9718018 0.8025818 -3.5769348 2.283142 -4.379486 4.2549744l-1.2315063 2.7812805c-0.12454224 0.24215698 0 0.5534973 0.24212646 0.67803955c0.06918335 0.013824463 0.13839722 0.020751953 0.20065308 0.020751953c0.21447754 0 0.38745117 -0.0899353 0.47738647 -0.3320923l1.2384338 -2.7121277c0.7402954 -1.7296448 2.096344 -3.0303345 3.8260193 -3.708374c0.8440552 -0.3320923 1.7365723 -0.49813843 2.6221619 -0.49813843c0.9339905 0 1.8611145 0.1867981 2.7466736 0.5603943c3.5216064 1.5428772 5.126709 5.6802063 3.5769348 9.201782l-1.2315063 2.7743835c-0.12454224 0.24908447 0 0.5534973 0.31134033 0.67803955c0.06225586 0 0.12454224 0.06225586 0.1798706 0.06225586c0.18682861 0 0.3736267 -0.12454224 0.49816895 -0.31134033l1.16922 -2.7743835c1.7919312 -4.0750732 -0.06225586 -8.7659 -4.1304016 -10.557831c-1.0101318 -0.44970703 -2.110199 -0.6849365 -3.210266 -0.6849365z" fill-rule="evenodd"/><path fill="#eb7275" d="m394.2089 209.70705l-47.15741 2.096344l-0.30441284 27.591522l0 0l47.150513 -2.158615l0.3113098 -27.529251z" fill-rule="evenodd"/><path fill="#ef2929" d="m346.8647 200.07631l0.43588257 32.15782l47.21277 1.2384338l-0.42895508 -32.15782l-47.219696 -1.2384338z" fill-rule="evenodd"/><path fill="#ffffff" d="m391.1232 212.05246c-0.24908447 0 -0.49813843 0.24908447 -0.49813843 0.5534973c0 0.24906921 0.24905396 0.49813843 0.49813843 0.49813843l3.0234375 -0.06227112c1.854187 0 3.514679 0.67803955 4.8776245 1.9095459c1.2937927 1.300705 2.0340881 3.030365 2.0963745 4.87764c0 1.8542023 -0.67803955 3.5838623 -1.9718323 4.87764c-1.3006897 1.2937775 -3.030365 2.0340729 -4.8153687 2.096344l-3.0234375 0.06227112c-0.24908447 0 -0.49813843 0.1867981 -0.49813843 0.49813843c0 0.24215698 0.24905396 0.4912262 0.5603943 0.4912262l2.9611816 -0.06227112c2.096344 0 4.0750732 -0.8648224 5.555664 -2.3454132c1.4805908 -1.5428619 2.2208862 -3.5215912 2.2208862 -5.617935c0 -2.158615 -0.86483765 -4.0750732 -2.4076843 -5.555664c-1.4805908 -1.4805908 -3.3970337 -2.2208862 -5.493408 -2.2208862z" fill-rule="evenodd"/><path fill="#ffd966" d="m460.55862 207.54843l-2.7743835 27.895935l46.65927 7.098526l2.7743835 -27.833664l-46.65927 -7.160797z" fill-rule="evenodd"/><path fill="#fbbf10" d="m461.61026 199.2184l-3.8882751 31.846481l47.02597 3.826004l3.8882446 -31.846481l-47.02594 -3.826004z" fill-rule="evenodd"/><path fill="#ffffff" d="m459.46548 209.77623c-1.7642517 0 -3.473175 0.56733704 -4.8292236 1.6604767c-1.6673889 1.2937927 -2.7190247 3.1479797 -3.030365 5.2443237c-0.49121094 4.3241425 2.5944824 8.274689 6.91864 8.828186l2.9611816 0.36668396l0.06225586 0c0.24215698 0 0.42895508 -0.17988586 0.49124146 -0.42895508c0 -0.31134033 -0.1867981 -0.5534973 -0.42895508 -0.6157532l-2.9681091 -0.37361145c-3.763733 -0.42895508 -6.47583 -3.8882751 -5.984619 -7.652008c0.1867981 -1.7919312 1.1138916 -3.45932 2.5944824 -4.5662994c1.2246094 -0.96170044 2.767456 -1.4598389 4.31723 -1.4598389c0.24908447 0 0.49813843 0.013839722 0.7402954 0.041519165l2.9681091 0.36668396c0.027679443 0.0069122314 0.06225586 0.013839722 0.0899353 0.013839722c0.25598145 0 0.40820312 -0.22140503 0.463562 -0.4427948c0 -0.31134033 -0.18682861 -0.56040955 -0.43588257 -0.56040955l-2.9611816 -0.36668396c-0.3251648 -0.041519165 -0.6503601 -0.055358887 -0.9685974 -0.055358887z" fill-rule="evenodd"/><path fill="#fbbf10" d="m294.64975 342.59326l0.6157532 6.911743l-5.368866 4.441742l6.794098 1.5497742l2.5875854 6.4758606l3.5838318 -5.984619l6.911743 -0.43588257l-4.5663147 -5.2443237l1.7296753 -6.7249146l0 0l-6.4205017 2.7120972l-5.8670044 -3.701477z" fill-rule="evenodd"/><path fill="#ffce33" d="m318.2287 246.73706l-2.7743835 4.4417725l-5.2512207 0.1867981l3.3347778 4.012802l-1.3560486 5.064438l4.8153687 -1.9164429l4.379486 2.8366394l-0.36669922 -5.182068l4.130432 -3.2725067l-5.1197815 -1.2937927l-1.7919312 -4.87764z" fill-rule="evenodd"/><path fill="#fbbf10" d="m498.14755 163.85034l-0.98934937 5.860077l-5.368866 2.5322266l5.2443237 2.7812805l0.7402954 5.860092l4.2618713 -4.1373444l5.860077 1.1138916l0 0l-2.6498108 -5.306595l2.8988953 -5.251236l-5.9223633 0.9270935l-4.0750732 -4.379486z" fill-rule="evenodd"/><path fill="#fbbf10" d="m538.8222 358.2709l-3.3970337 3.763733l-5.057495 -0.6157532l2.5875244 4.379486l-2.2208862 4.6285706l5.0021973 -1.1069641l3.701477 3.5146484l0.5534668 -5.0575256l4.4486694 -2.4699402l-4.62854 -2.0340881l-0.9893799 -5.0021667z" fill-rule="evenodd"/><path fill="#fbbf10" d="m461.79013 432.77075l-3.3901367 3.7637634l-5.0644226 -0.6157837l0 0l2.5944824 4.3795166l-2.2208862 4.6285706l4.99527 -1.1139221l3.708374 3.5216064l0.5534973 -5.064453l4.4417725 -2.4630432l-4.6285706 -2.040985l-0.9893799 -4.99527z" fill-rule="evenodd"/><path fill="#f1c92f" d="m509.00983 244.27255l-0.7402954 4.5040283l-4.1996155 1.9787292l4.137329 2.096344l0.5534973 4.5663147l3.272522 -3.210266l4.5040283 0.86483765l0 0l-2.0340576 -4.1373444l2.2208862 -4.012802l-4.566345 0.6849365l-3.1479492 -3.3347778z" fill-rule="evenodd"/><path fill="#165c7f" d="m400.8093 343.58264l-32.399994 10.364105l28.020477 79.7442l11.4157715 -3.6392212l-16.660095 -57.396973l1.84729 -0.62268066l19.628174 56.476807l11.422668 -3.6391907l-23.274292 -81.28705z" fill-rule="evenodd"/><path fill="#242c44" d="m407.7279 428.82022l-12.038422 3.8260193l0.9893799 3.0856934l12.031494 -3.8259888l-0.9824524 -3.0857239z" fill-rule="evenodd"/><path fill="#242c44" d="m424.26346 423.5067l-12.584991 4.0128174l0.9824524 3.0856934l12.591888 -4.012787l-0.98934937 -3.0857239z" fill-rule="evenodd"/><path fill="#242c44" d="m388.65323 352.0995l-0.49121094 0.1867981l5.555664 17.40036c-0.29058838 0.06918335 -0.58117676 0.10379028 -0.86483765 0.10379028c-0.5188904 0 -1.0308533 -0.11071777 -1.5428467 -0.34594727c-4.753113 -2.4699402 -7.5343933 -15.615356 -7.596649 -15.739899l-0.49124146 0.12454224c0.12454224 0.5534973 2.8366394 13.5121155 7.838806 16.044312c0.6157837 0.31134033 1.1692505 0.43588257 1.7919312 0.43588257c0.49124146 0 1.0447388 -0.12454224 1.605133 -0.3735962l-0.24908447 -0.42895508l-5.555664 -17.407288z" fill-rule="evenodd"/><path fill="#242c44" d="m399.76456 347.77533l-27.15564 8.641388l0.117614746 0.49813843l4.690857 -1.4805908l0 0c0.24905396 0.5534973 1.7296448 4.6285706 -2.1586304 6.7871704l0.24908447 0.49124146c4.137329 -2.3454285 2.7120972 -6.7249146 2.4076843 -7.402954l15.739899 -5.0644226c0.24215698 0.67800903 1.9095459 5.0021667 6.233673 5.0021667c0.24215698 0 0.49124146 0 0.8025818 -0.062286377l-0.062286377 -0.49121094c-0.24215698 0.020751953 -0.47045898 0.034576416 -0.6987915 0.034576416c-3.992035 0 -5.5487366 -3.9643555 -5.783966 -4.607788l5.742462 -1.84729l-0.12454224 -0.49813843z" fill-rule="evenodd"/><path fill="#00c0f3" d="m316.1321 359.7515c1.7850037 0 3.3278503 1.4805908 3.3278503 3.3347778c0 1.8472595 -1.5428467 3.3347778 -3.3278503 3.3347778c-1.854187 0 -3.3347778 -1.4875183 -3.3347778 -3.3347778c0 -1.854187 1.4805908 -3.3347778 3.3347778 -3.3347778zm0 -1.2937927c-2.5944824 0 -4.6285706 2.096344 -4.6285706 4.6285706c0 2.5322266 2.0340881 4.6285706 4.6285706 4.6285706c2.5322266 0 4.566284 -2.096344 4.566284 -4.6285706c0 -2.5322266 -2.0340576 -4.6285706 -4.566284 -4.6285706z" fill-rule="evenodd"/><path fill="#00c0f3" d="m367.23315 319.5127c1.7919312 0 3.3347778 1.4805908 3.3347778 3.3278809c0 1.7919312 -1.5428467 3.3347778 -3.3347778 3.3347778c-1.84729 0 -3.3278809 -1.5428467 -3.3278809 -3.3347778c0 -1.84729 1.4805908 -3.3278809 3.3278809 -3.3278809zm0 -1.3006897c-2.5875854 0 -4.6285706 2.040985 -4.6285706 4.6285706c0 2.5322266 2.040985 4.566284 4.6285706 4.566284c2.5322266 0 4.5732117 -2.0340576 4.5732117 -4.566284c0 -2.5875854 -2.040985 -4.6285706 -4.5732117 -4.6285706z" fill-rule="evenodd"/><path fill="#00c0f3" d="m593.6939 336.67093c1.84729 0 3.3278809 1.4805908 3.3278809 3.3278503c0 1.7919312 -1.4805908 3.3347778 -3.3278809 3.3347778c-1.854187 0 -3.3347778 -1.5428467 -3.3347778 -3.3347778c0 -1.8472595 1.4805908 -3.3278503 3.3347778 -3.3278503zm0 -1.3007202c-2.5322266 0 -4.62854 2.0410156 -4.62854 4.6285706c0 2.5322266 2.0963135 4.5663147 4.62854 4.5663147c2.5253296 0 4.628601 -2.0340881 4.628601 -4.5663147c0 -2.587555 -2.1032715 -4.6285706 -4.628601 -4.6285706z" fill-rule="evenodd"/><path fill="#00c0f3" d="m482.22086 457.08286c1.8542175 0 3.3347778 1.5428467 3.3347778 3.3347778c0 1.854187 -1.4805603 3.3347778 -3.3347778 3.3347778c-1.7850037 0 -3.3278503 -1.4805908 -3.3278503 -3.3347778c0 -1.7919312 1.5428467 -3.3347778 3.3278503 -3.3347778zm0 -1.2315369c-2.525299 0 -4.566284 2.0340881 -4.566284 4.5663147c0 2.5944824 2.040985 4.6285706 4.566284 4.6285706c2.5944824 0 4.6285706 -2.0340881 4.6285706 -4.6285706c0 -2.5322266 -2.0340881 -4.5663147 -4.6285706 -4.5663147z" fill-rule="evenodd"/><path fill="#00c0f3" d="m379.39612 439.4334l0 10.799988l1.2937622 0l0 -10.799988z" fill-rule="evenodd"/><path fill="#00c0f3" d="m374.643 444.18652l0 1.2937622l10.799988 0l0 -1.2937622z" fill-rule="evenodd"/><path fill="#00c0f3" d="m520.12115 192.92244l0 10.799988l1.2315063 0l0 -10.799988z" fill-rule="evenodd"/><path fill="#00c0f3" d="m515.36804 197.67554l0 1.2937927l10.737732 0l0 -1.2937927z" fill-rule="evenodd"/><path fill="#00c0f3" d="m583.19836 353.20645l0 10.806915l1.2937622 0l0 -10.806915z" fill-rule="evenodd"/><path fill="#00c0f3" d="m578.44525 357.95956l0 1.3006897l10.799988 0l0 -1.3006897z" fill-rule="evenodd"/><path fill="#00c0f3" d="m334.15515 253.84102l0 10.800003l1.2937927 0l0 -10.800003z" fill-rule="evenodd"/><path fill="#00c0f3" d="m329.40204 258.59412l0 1.2937927l10.799988 0l0 -1.2937927z" fill-rule="evenodd"/></g></svg>